# xmcd CD database file
# Copyright (C) 1993-1998 Ti Kan
#
# Track frame offsets:
#  150
#  10892
#  29817
#  46002
#  59057
#  71572
#  92437
#  107550
#  123107
#  136895
#  149850
#  162637
#  173690
#  184782
#  195700
#  208667
#  222337
#  238120
#  251222
#  273425
#
# Disc length: 3829 seconds
#
# Revision: 1
# Processed by: cddbd v1.4b41PL1 Copyright (c) Steve Scherf et al.
# Submitted via: CDWizzard Release:4.32
#
DISCID=350ef314
DTITLE=Jose Feliciano - Jose Feliciano At His Best
DYEAR=1900
DGENRE=
TTITLE0=High Heel Sneakers
TTITLE1=California Dreamin'
TTITLE2=Light My Fire
TTITLE3=I Got Woman
TTITLE4=Walk Right In
TTITLE5=Don't Think Twice
TTITLE6=Help
TTITLE7=Bye Bye Blackbird
TTITLE8=I'll Be Your Baby Tonight
TTITLE9=Chico And The Man
TTITLE10=Hey Baby
TTITLE11=Rain
TTITLE12=Destiny
TTITLE13=A Man and A Woman
TTITLE14=Don't Let the Sun Catch You Crying
TTITLE15=There's Always Something There to Remind Me
TTITLE16=Sunny
TTITLE17=Yesterday
TTITLE18=The Last Thing on My Mind
TTITLE19=Feliz Navidad
EXTD=
EXTT0=Jose Feliciano
EXTT1=Jose Feliciano
EXTT2=Jose Feliciano
EXTT3=Jose Feliciano
EXTT4=Jose Feliciano
EXTT5=Jose Feliciano
EXTT6=Jose Feliciano
EXTT7=Jose Feliciano
EXTT8=Jose Feliciano
EXTT9=Jose Feliciano
EXTT10=Jose Feliciano
EXTT11=Jose Feliciano
EXTT12=Jose Feliciano
EXTT13=Jose Feliciano
EXTT14=Jose Feliciano
EXTT15=Jose Feliciano
EXTT16=Jose Feliciano
EXTT17=Jose Feliciano
EXTT18=Jose Feliciano
EXTT19=Jose Feliciano
PLAYORDER=
